<?xml version="1.0" ?><svg height="512" preserveAspectRatio="xMidYMid" viewBox="0 0 512 512" width="512" xmlns="http://www.w3.org/2000/svg" xmlns:xlink="http://www.w3.org/1999/xlink"><defs><style>
      .cls-1 {
        fill: #3498db;
      }

      .cls-2 {
        fill: #000;
        opacity: 0.3;
      }

      .cls-2, .cls-3 {
        fill-rule: evenodd;
      }

      .cls-3 {
        fill: #fff;
      }
    </style></defs><g><circle class="cls-1" cx="256" cy="256" r="256"/><path class="cls-2" d="M143.000,244.000 L14.761,341.880 C47.067,432.624 129.122,499.771 228.103,510.498 L376.949,292.019 L379.000,248.000 L320.000,249.000 L304.000,244.000 L321.000,225.000 L304.000,222.000 L247.000,280.000 L239.000,265.000 L247.000,242.000 L226.000,262.000 L224.000,218.000 L192.953,244.321 L184.000,242.000 L167.000,255.000 L143.000,244.000 Z"/><path class="cls-3" d="M383.632,257.327 C380.227,274.195 376.818,293.036 376.818,293.036 L366.287,293.036 C366.287,293.036 368.922,277.413 372.482,259.789 C376.041,242.165 355.289,248.354 351.420,261.636 C347.550,274.918 345.225,292.420 345.225,292.420 L336.552,292.420 C336.552,292.420 339.188,274.841 341.508,259.174 C344.253,240.634 323.842,252.268 321.065,264.099 C318.201,276.302 315.490,291.804 315.490,291.804 L307.437,291.804 L314.251,248.707 C312.653,248.744 302.501,245.196 301.242,251.786 C299.379,261.540 293.808,291.804 293.808,291.804 L286.375,291.804 L294.428,248.092 L288.233,248.092 L289.472,240.703 L295.667,240.703 C301.227,209.995 323.543,217.923 323.543,217.923 L321.065,226.543 C308.353,219.594 304.340,240.703 304.340,240.703 L324.163,240.703 L322.924,248.707 C342.964,226.003 352.039,248.092 352.039,248.092 C366.936,231.720 387.037,240.458 383.632,257.327 ZM269.609,286.424 C265.097,286.424 261.439,282.781 261.439,278.288 C261.439,273.795 265.097,270.153 269.609,270.153 C274.122,270.153 277.780,273.795 277.780,278.288 C277.780,282.781 274.122,286.424 269.609,286.424 ZM259.737,291.804 L241.153,291.189 C234.468,268.957 229.088,269.201 228.144,273.950 C227.201,278.699 223.808,291.804 223.808,291.804 L210.179,291.189 L224.427,217.923 L238.675,217.923 C237.474,226.343 230.717,257.033 233.100,257.327 C235.375,257.607 247.967,241.319 247.967,241.319 L265.932,241.935 C265.932,241.935 244.978,260.989 244.870,264.099 C244.762,267.209 259.737,291.804 259.737,291.804 ZM192.834,253.633 C189.362,260.673 210.786,260.363 208.321,277.644 C207.169,285.715 199.688,299.862 171.772,290.573 C171.772,290.573 167.304,284.508 176.108,277.644 C176.108,277.644 189.632,285.075 192.834,278.875 C196.036,272.675 180.436,269.136 177.347,263.483 C172.868,255.287 181.862,228.953 211.418,243.166 L207.082,253.633 C207.082,253.633 196.306,246.592 192.834,253.633 ZM153.807,291.804 C153.807,291.804 153.341,284.818 151.329,283.801 C149.318,282.783 145.784,296.343 135.223,293.651 C127.625,291.715 124.939,272.204 132.458,257.485 C138.934,244.808 149.282,235.387 173.630,241.319 L166.197,291.804 L153.807,291.804 ZM154.400,253.026 C151.103,250.632 145.113,254.613 141.021,261.918 C136.930,269.223 136.286,277.087 139.583,279.481 C142.880,281.875 148.870,277.894 152.962,270.589 C157.053,263.284 157.697,255.421 154.400,253.026 Z"/></g></svg>